<svg width="22" height="22" viewBox="0 0 22 22" fill="none" xmlns="http://www.w3.org/2000/svg">
<path d="M14.8718 4.52945L15.738 3.66321C16.4557 2.9456 17.6192 2.9456 18.3368 3.66321C19.0544 4.38083 19.0544 5.54431 18.3368 6.26193L17.4705 7.12818M14.8718 4.52945L9.04488 10.3563C8.60081 10.8005 8.28579 11.3568 8.13347 11.9661L7.5 14.5L10.0339 13.8665C10.6432 13.7142 11.1995 13.3992 11.6437 12.9551L17.4705 7.12818M14.8718 4.52945L17.4705 7.12818" stroke="white" stroke-width="1.5" stroke-linejoin="round"/>
<path d="M17.1249 12.3125C17.1249 15.1891 17.1249 16.6273 16.3305 17.5954C16.1851 17.7726 16.0226 17.9351 15.8453 18.0805C14.8773 18.875 13.439 18.875 10.5624 18.875H10.125C6.82517 18.875 5.17526 18.875 4.15014 17.8498C3.12503 16.8248 3.125 15.1748 3.125 11.875V11.4375C3.125 8.56095 3.125 7.12269 3.91945 6.15464C4.0649 5.97741 4.22741 5.8149 4.40464 5.66945C5.37269 4.875 6.81095 4.875 9.6875 4.875" stroke="white" stroke-width="1.5" stroke-linecap="round" stroke-linejoin="round"/>
</svg>
