<svg width="801" height="597" viewBox="0 0 801 597" fill="none" xmlns="http://www.w3.org/2000/svg">
<g clip-path="url(#clip0_42_206)">
<path d="M801 524.644H0V525.045H801V524.644Z" fill="#EBEBEB"/>
<path d="M720.74 550.424H667.682V550.824H720.74V550.424Z" fill="#EBEBEB"/>
<path d="M530.615 554.782H516.693V555.182H530.615V554.782Z" fill="#EBEBEB"/>
<path d="M666.08 535.555H635.338V535.956H666.08V535.555Z" fill="#EBEBEB"/>
<path d="M153.231 538.247H84.041V538.648H153.231V538.247Z" fill="#EBEBEB"/>
<path d="M177.647 538.247H167.506V538.648H177.647V538.247Z" fill="#EBEBEB"/>
<path d="M360.691 545.008H210.615V545.409H360.691V545.008Z" fill="#EBEBEB"/>
<path d="M379.69 453.186H70.3603C65.314 453.186 61.2129 449.084 61.2129 444.037V9.14863C61.2129 4.10166 65.314 0 70.3603 0H379.707C384.753 0 388.854 4.10166 388.854 9.14863V444.037C388.838 449.084 384.737 453.186 379.69 453.186ZM70.3603 0.400553C65.5383 0.400553 61.6134 4.32597 61.6134 9.14863V444.037C61.6134 448.86 65.5383 452.785 70.3603 452.785H379.707C384.529 452.785 388.453 448.86 388.453 444.037V9.14863C388.453 4.32597 384.529 0.400553 379.707 0.400553H70.3603Z" fill="#EBEBEB"/>
<path d="M726.203 453.186H416.856C411.81 453.186 407.709 449.084 407.709 444.037V9.14863C407.709 4.10166 411.81 0 416.856 0H726.203C731.249 0 735.35 4.10166 735.35 9.14863V444.037C735.35 449.084 731.249 453.186 726.203 453.186ZM416.856 0.400553C412.034 0.400553 408.109 4.32597 408.109 9.14863V444.037C408.109 448.86 412.034 452.785 416.856 452.785H726.203C731.025 452.785 734.949 448.86 734.949 444.037V9.14863C734.949 4.32597 731.025 0.400553 726.203 0.400553H416.856Z" fill="#EBEBEB"/>
<path d="M235.269 377.545H121.207V520.142H235.269C246.307 520.142 255.326 511.122 255.326 500.082V397.605C255.326 386.566 246.307 377.545 235.269 377.545Z" fill="#F0F0F0"/>
<path d="M122.152 377.545H120.262C109.224 377.545 100.205 386.566 100.205 397.605V500.082C100.205 511.122 109.224 520.142 120.262 520.142H122.152C133.19 520.142 142.21 511.122 142.21 500.082V397.605C142.21 386.566 133.174 377.545 122.152 377.545Z" fill="#F5F5F5"/>
<path d="M136.48 520.132H285.354V430.135H136.48V520.132Z" fill="#F0F0F0"/>
<path d="M124.252 524.644H392.571C394.846 524.644 396.688 522.802 396.688 520.526V520.142H235.335L120.135 520.526C120.135 522.802 121.977 524.644 124.252 524.644Z" fill="#E0E0E0"/>
<path d="M241.774 318.375H380.299C395.742 318.375 407.181 330.905 405.819 346.35L396.687 450.478H202.221L211.352 346.35C212.698 330.905 226.315 318.375 241.774 318.375Z" fill="#E0E0E0"/>
<path d="M219.891 318.375H361.108C375.814 318.375 386.692 330.296 385.394 345.004L376.15 450.478H181.684L190.927 345.004C192.209 330.312 205.185 318.375 219.891 318.375Z" fill="#F5F5F5"/>
<path d="M148.409 421.926H266.332C273.301 421.926 278.956 427.582 278.956 434.552V445.944C278.956 452.913 273.301 458.569 266.332 458.569H148.409C138.284 458.569 130.082 450.366 130.082 440.24C130.082 430.13 138.284 421.926 148.409 421.926Z" fill="#E0E0E0"/>
<path d="M400.068 377.545H286.006V520.142H400.068C411.106 520.142 420.125 511.122 420.125 500.082V397.605C420.125 386.566 411.106 377.545 400.068 377.545Z" fill="#F0F0F0"/>
<path d="M286.949 377.545H285.059C274.021 377.545 265.002 386.566 265.002 397.605V500.082C265.002 511.122 274.021 520.142 285.059 520.142H286.949C297.987 520.142 307.006 511.122 307.006 500.082V397.605C307.006 386.566 297.971 377.545 286.949 377.545Z" fill="#F5F5F5"/>
<path d="M600.766 299.149H491.109V524.628H600.766V299.149Z" fill="#F0F0F0"/>
<path d="M507.504 507.077L507.504 316.718H504.973L504.973 507.077H507.504Z" fill="#E6E6E6"/>
<path d="M584.586 316.725H504.967V319.93H584.586V316.725Z" fill="#E6E6E6"/>
<path d="M712.956 299.149H603.299V524.628H712.956V299.149Z" fill="#F0F0F0"/>
<path d="M712.964 524.644H727.479V299.165H712.964V524.644Z" fill="#E0E0E0"/>
<path d="M619.697 507.072V316.713H617.166V507.072H619.697Z" fill="#E6E6E6"/>
<path d="M603.303 524.637V301.722H600.772V524.637H603.303Z" fill="#E6E6E6"/>
<path d="M696.791 316.725H617.172V319.93H696.791V316.725Z" fill="#E6E6E6"/>
<path d="M595.961 349.042H590.514V398.871H595.961V349.042Z" fill="#E0E0E0"/>
<path d="M613.55 349.042H608.104V398.871H613.55V349.042Z" fill="#E0E0E0"/>
<path d="M682.628 64.0404H123.498V263.5H682.628V64.0404Z" fill="#E0E0E0"/>
<path d="M677.501 64.0404H118.371V263.5H677.501V64.0404Z" fill="#F0F0F0"/>
<path d="M660.729 246.725V80.816L135.144 80.816V246.725L660.729 246.725Z" fill="#FAFAFA"/>
<path d="M220.467 246.709L255.294 80.8156H332.174L297.347 246.709H220.467Z" fill="white"/>
<path d="M329.787 246.709L364.615 80.8156H403.063L368.235 246.709H329.787Z" fill="white"/>
<path d="M564.496 246.709L599.34 80.8156H637.772L602.944 246.709H564.496Z" fill="white"/>
<path d="M400.5 597C572.047 597 711.112 588.88 711.112 578.863C711.112 568.846 572.047 560.726 400.5 560.726C228.954 560.726 89.8887 568.846 89.8887 578.863C89.8887 588.88 228.954 597 400.5 597Z" fill="#F5F5F5"/>
<path d="M265.948 97.2382C269.985 87.9774 234.228 79.5658 223.415 108.085C213.611 133.945 197.334 140.53 204.992 158.427C213.274 177.813 260.149 180.137 280.494 158.651C296.995 141.235 279.068 133.913 281.391 117.522C283.682 101.164 278.828 95.8123 265.948 97.2382Z" fill="#263238"/>
<path d="M200.794 152.691C198.936 142.597 202.684 138.431 207.41 133.16C211.736 128.353 217.118 122.361 220.066 109.511C222.453 99.0808 229.582 92.2554 240.139 90.3007C250.712 88.346 261.91 91.7907 264.858 96.1968C265.835 97.6388 265.883 99.1769 265.018 100.539L263.673 99.6736C264.185 98.8565 264.137 98.0233 263.528 97.094C260.901 93.1846 250.232 90.0603 240.428 91.8868C233.427 93.1846 224.488 97.3664 221.62 109.88C218.576 123.146 213.049 129.298 208.596 134.249C203.982 139.392 200.634 143.094 202.364 152.418L200.794 152.691Z" fill="#263238"/>
<path d="M178.767 145.032L177.774 141.844C177.101 139.665 175.851 137.71 174.185 136.156L171.029 133.24C168.947 131.301 165.775 131.141 163.5 132.839L160.055 135.403C157.428 137.374 156.899 141.107 158.902 143.718L161.113 146.602C161.113 146.602 166.287 155.366 173.801 158.427L175.531 156.953C175.563 156.937 175.595 156.905 175.611 156.873C178.975 153.973 180.096 149.246 178.767 145.032Z" fill="#FFC3BD"/>
<path d="M241.037 200.645L240.011 201.43L239.178 202.039L237.56 203.16C236.487 203.865 235.413 204.538 234.324 205.163C232.145 206.429 229.903 207.55 227.596 208.576C222.966 210.579 218.016 212.149 212.777 212.982C207.555 213.879 201.996 213.943 196.485 213.078C193.729 212.63 191.006 211.957 188.379 210.979C187.722 210.755 187.065 210.499 186.424 210.226L185.463 209.826L184.983 209.617L184.454 209.377L183.781 209.057C182.099 208.191 180.849 207.198 179.936 206.349C178.975 205.452 178.302 204.65 177.677 203.881C175.371 200.837 174.345 198.354 173.32 195.95C172.359 193.563 171.622 191.304 170.965 189.077C169.731 184.607 168.786 180.297 168.065 175.987C166.608 167.351 165.775 158.907 165.614 150.191C165.55 146.618 168.402 143.654 171.974 143.59C174.81 143.542 177.261 145.321 178.19 147.852L178.254 148.028C181.042 155.703 183.717 163.554 186.552 171.036C187.994 174.753 189.42 178.454 191.022 181.819C191.791 183.501 192.592 185.12 193.393 186.497C194.162 187.859 195.123 189.077 195.428 189.269C195.476 189.285 195.492 189.253 195.331 189.061C195.187 188.917 194.803 188.532 194.05 188.132L193.745 187.971C193.665 187.923 193.457 187.859 193.569 187.891L193.826 187.955L194.338 188.084C194.675 188.18 195.011 188.276 195.347 188.324C196.693 188.644 198.071 188.708 199.449 188.821C202.204 188.965 205.072 188.612 208.019 187.923C210.951 187.202 213.979 186.161 216.958 184.751C218.448 184.078 219.922 183.293 221.364 182.508C222.085 182.107 222.79 181.691 223.463 181.274L225.129 180.233L226.378 179.464C232.434 175.699 240.38 177.573 244.144 183.629C247.669 189.285 246.211 196.655 241.037 200.645Z" fill="#FFC3BD"/>
<path d="M269.199 571.861C279.34 568.529 287.895 561.671 286.165 549.639C285.428 544.48 301.96 542.461 301.96 542.461C300.07 558.851 302.137 561.607 304.107 565.388C306.093 569.186 305.965 573.608 302.537 574.024C298.436 574.505 297.523 574.056 292.428 574.729C286.485 575.514 282.624 578.639 270.705 578.639C264.185 578.639 265.947 572.935 269.199 571.861Z" fill="#407BFF"/>
<path d="M299.975 396.804C301.144 314.706 293.535 269.957 293.535 269.957L232.803 272.985C232.803 272.985 241.79 348.096 257.73 403.421C261.991 433.11 271.587 483.323 278.235 517.05C288.729 515.992 299.254 514.182 307.344 511.538C309.715 481.897 310.131 439.038 299.975 396.804Z" fill="#134995"/>
<path d="M301.288 550.504C301.288 550.504 303.659 534.994 305.261 511.538C298.34 514.182 289.337 515.992 280.35 517.05C283.81 537.542 286.277 550.568 286.277 550.568C289.289 552.042 296.946 552.555 301.288 550.504Z" fill="#FFC3BD"/>
<path d="M274.967 507.228C275.511 510.048 276.969 517.114 278.427 519.597C278.603 519.886 278.892 520.094 279.244 520.126C290.57 521.552 301.88 519.277 306.558 517.226C306.814 517.114 307.023 516.906 307.119 516.633C308.384 513.252 308.865 506.091 308.993 503.078C309.025 502.373 308.4 501.829 307.712 501.973C303.995 502.71 292.685 504.745 275.944 505.946C275.303 505.994 274.838 506.587 274.967 507.228Z" fill="#263238"/>
<path d="M233.636 176.452C224.632 178.118 210.903 185.664 210.903 185.664C210.903 185.664 203.678 202.968 212.329 215.433C220.852 217.436 225.193 215.802 225.193 215.802L233.636 176.452Z" fill="#263238"/>
<path opacity="0.2" d="M212.328 215.433C220.851 217.436 225.192 215.802 225.192 215.802L224.888 192.442C219.057 200.244 214.235 207.967 212.328 215.433Z" fill="black"/>
<path opacity="0.2" d="M299.654 348.369C292.862 331.754 285.557 318.071 282.753 305.574C277.979 339.557 281.728 370.816 300.007 393.215C300.215 376.68 300.039 361.715 299.654 348.369Z" fill="black"/>
<path d="M392.441 478.661L368.203 495.901C348.418 470.121 318.749 430.739 311.572 413.595C293.341 370.095 256.688 274.251 256.688 274.251L304.267 263.195C304.267 263.195 334.288 291.074 353.657 396.275C369.917 419.267 383.566 453.17 392.441 478.661Z" fill="#134995"/>
<path d="M391.096 560.373C397.136 548.565 397.216 535.555 390.696 525.301C387.892 520.911 402.134 512.243 402.134 512.243C407.164 527.961 411.265 528.874 414.758 531.293C418.362 533.793 418.602 538.984 415.655 540.762C412.114 542.893 410.753 544.287 407.629 548.357C403.976 553.115 401.926 559.765 396.687 563.882C393.355 566.51 388.437 565.549 391.096 560.373Z" fill="#134995"/>
<path d="M404.776 519.437C404.776 519.437 400.595 504.729 392.377 482.698C387.17 487.953 379.705 493.305 371.951 497.983C383.534 515.223 392.008 527.608 392.008 527.608C397.167 525.99 401.668 523.09 404.776 519.437Z" fill="#FFC3BD"/>
<path d="M363.013 491.27C364.663 493.609 368.908 499.457 371.263 501.108C371.551 501.3 371.904 501.364 372.224 501.268C383.134 497.903 392.489 491.158 395.918 487.361C396.11 487.152 396.206 486.88 396.19 486.592C395.95 482.987 393.435 476.273 392.313 473.47C392.057 472.813 391.256 472.572 390.695 472.989C387.619 475.184 378.151 481.705 363.397 489.7C362.82 490.004 362.628 490.741 363.013 491.27Z" fill="#263238"/>
<path d="M219.89 200.421C222.068 214.584 213.61 225.591 226.602 232.128C224.439 242.895 227.643 264.445 232.802 272.985C240.011 276.91 275.367 271.11 304.251 263.195C303.834 250.858 293.678 226.585 296.497 186.177C297.154 176.804 289.544 168.937 280.157 169.274C277.642 169.37 274.998 169.514 272.307 169.754C261.814 170.684 253.227 171.517 244.176 173.616C241.18 174.305 238.088 175.122 235.141 175.955C224.535 178.951 218.223 189.526 219.89 200.421Z" fill="#263238"/>
<path d="M240.316 189.574C240.316 189.574 249.352 186.257 254.11 194.396C261.991 189.958 273.109 171.196 272.308 169.77C259.092 173.375 240.316 189.574 240.316 189.574Z" fill="white"/>
<path d="M240.315 189.574C240.315 189.574 233.442 188.757 231.504 194.829C231.568 182.812 239.61 175.266 243.15 173.856C241.965 176.98 240.315 189.574 240.315 189.574Z" fill="white"/>
<path d="M268.848 137.95C267.839 147.307 267.678 162.384 272.324 169.754C272.324 169.754 254.782 181.835 240.316 189.574C235.782 179.079 243.152 173.856 243.152 173.856C250.024 171.212 249.96 162.432 249.031 155.687L268.848 137.95Z" fill="#FFC3BD"/>
<path opacity="0.2" d="M249.031 155.687L260.293 145.593C260.71 147.115 260.534 149.342 259.941 151.249C258.179 156.792 253.533 161.247 249.4 163.666C249.608 161.022 249.384 158.218 249.031 155.687Z" fill="black"/>
<path d="M272.468 120.534C270.946 135.739 270.625 142.212 262.775 149.743C250.953 161.07 232.978 155.879 229.999 140.514C227.323 126.687 230.255 104.144 245.121 98.6482C259.764 93.2327 273.973 105.329 272.468 120.534Z" fill="#FFC3BD"/>
<path d="M269.072 131.67C263.594 126.783 264.539 118.355 268.544 114.286C272.549 110.232 278.188 118.612 278.188 118.612L269.072 131.67Z" fill="#263238"/>
<path d="M250.569 124.748C250.521 125.982 249.816 126.975 249.015 126.943C248.198 126.911 247.589 125.886 247.637 124.636C247.685 123.402 248.39 122.409 249.191 122.441C249.992 122.473 250.617 123.498 250.569 124.748Z" fill="#263238"/>
<path d="M235.286 124.364C235.238 125.597 234.533 126.591 233.732 126.559C232.915 126.527 232.306 125.501 232.354 124.252C232.402 123.018 233.107 122.024 233.908 122.056C234.725 122.089 235.334 123.13 235.286 124.364Z" fill="#263238"/>
<path d="M234.26 122.153L231.312 121.175C231.312 121.175 232.754 123.563 234.26 122.153Z" fill="#263238"/>
<path d="M239.051 124.86C239.051 124.86 236.728 130.116 234.309 132.615C235.895 134.201 238.698 133.624 238.698 133.624L239.051 124.86Z" fill="#ED847E"/>
<path d="M245.666 138.479C245.025 138.575 244.32 138.607 243.583 138.575C243.375 138.575 243.23 138.399 243.23 138.191C243.246 137.998 243.407 137.838 243.615 137.838C249.062 138.063 251.753 134.345 251.785 134.313C251.897 134.153 252.138 134.105 252.298 134.233C252.458 134.345 252.506 134.586 252.378 134.746C252.266 134.89 250.087 137.87 245.666 138.479Z" fill="#263238"/>
<path d="M274.999 133.288C273.557 136.172 271.122 137.934 268.847 138.511C265.435 139.36 263.849 135.611 264.906 131.862C265.851 128.481 268.767 123.979 272.147 124.812C275.479 125.613 276.649 129.987 274.999 133.288Z" fill="#FFC3BD"/>
<path d="M264.586 98.8725C252.507 106.483 239.627 110.216 229.118 111.562C229.021 100.619 250.488 88.3299 264.586 98.8725Z" fill="#263238"/>
<path d="M256.335 100.218C253.836 109.832 278.667 127.408 274.006 144.407C282.144 131.718 276.28 103.214 276.28 103.214C276.28 103.214 255.23 89.9321 256.335 100.218Z" fill="#263238"/>
<path d="M253.755 116.577C253.563 116.545 253.387 116.433 253.275 116.272C251.449 113.581 248.757 113.597 248.725 113.597C248.325 113.597 247.988 113.292 247.988 112.876C247.988 112.475 248.293 112.139 248.709 112.139C248.853 112.139 252.218 112.107 254.492 115.455C254.717 115.792 254.637 116.24 254.3 116.465C254.124 116.577 253.932 116.609 253.755 116.577Z" fill="#263238"/>
<path d="M228.525 116.032C228.349 116.032 228.157 115.952 228.029 115.824C227.74 115.535 227.74 115.071 228.029 114.798C230.88 111.947 234.18 112.603 234.325 112.619C234.725 112.7 234.965 113.084 234.885 113.485C234.805 113.885 234.421 114.126 234.02 114.045C233.892 114.013 231.329 113.549 229.054 115.824C228.91 115.968 228.718 116.048 228.525 116.032Z" fill="#263238"/>
<path d="M249.543 122.521L246.596 121.544C246.596 121.544 248.022 123.931 249.543 122.521Z" fill="#263238"/>
<path opacity="0.2" d="M296.128 193.996C295.824 203.481 296.224 212.005 296.977 219.599C288.919 211.139 278.907 195.165 278.25 187.154L296.128 193.996Z" fill="black"/>
<path d="M348.436 163.858L350.198 153.684L365.993 159.789C365.993 159.789 362.341 169.258 355.58 173.439L353.706 172.254C350.646 170.315 348.708 167.223 348.436 163.858Z" fill="#FFC3BD"/>
<path d="M360.05 148.012L365.24 150.832C367.611 152.114 368.492 155.078 367.227 157.449L365.993 159.773L350.197 153.668L353.946 149.166C355.436 147.387 357.999 146.891 360.05 148.012Z" fill="#FFC3BD"/>
<path d="M293.31 175.474L295.312 177.557L297.507 179.784C298.997 181.242 300.486 182.732 302.024 184.142C305.068 187.01 308.224 189.67 311.364 192.153C314.52 194.573 317.74 196.752 320.816 198.402C323.908 200.036 326.823 201.046 328.97 201.318L324.661 202.119C323.603 202.632 323.667 202.856 323.892 202.68C324.132 202.536 324.581 202.167 325.077 201.67C326.07 200.677 327.208 199.267 328.281 197.745C330.46 194.653 332.671 191.144 334.737 187.507C336.868 183.886 338.918 180.121 340.969 176.339L347.137 164.932L347.185 164.836C348.883 161.679 352.824 160.51 355.98 162.208C358.463 163.554 359.728 166.31 359.296 168.953C358.559 173.568 357.55 177.926 356.428 182.364C355.291 186.786 353.961 191.16 352.455 195.566C350.869 199.94 349.203 204.362 346.88 208.848C345.711 211.107 344.429 213.383 342.667 215.834C341.786 217.068 340.761 218.333 339.383 219.679C337.989 220.993 336.259 222.547 333.151 223.893C331.982 224.406 330.764 224.662 329.547 224.678L328.842 224.694C321.745 224.822 315.689 223.06 310.467 220.849C307.84 219.727 305.357 218.494 303.002 217.18C300.663 215.834 298.436 214.408 296.289 212.934C291.996 209.986 288.071 206.765 284.338 203.401C282.496 201.702 280.67 199.988 278.924 198.194C278.042 197.296 277.177 196.383 276.328 195.454C275.447 194.476 274.694 193.627 273.685 192.442C269.071 186.994 269.744 178.823 275.191 174.208C280.413 169.786 288.135 170.219 292.829 175.074L293.31 175.474Z" fill="#FFC3BD"/>
<path d="M280.879 169.306C292.622 169.658 304.3 183.774 304.3 183.774C304.3 183.774 299.767 202.439 286.903 210.482C279.677 204.843 273.526 200.324 273.526 200.324C263.305 185.264 266.717 175.282 280.879 169.306Z" fill="#263238"/>
<path d="M230.463 271.863C231.328 276.894 232.369 280.82 232.706 282.037C232.77 282.294 232.946 282.502 233.187 282.63C234.901 283.591 242.718 287.373 257.056 286.604C273.156 285.722 296.578 277.022 308.785 267.665C309.153 267.393 309.282 266.896 309.105 266.464C308.08 264.06 306.542 261.577 305.821 260.439C305.581 260.055 305.116 259.895 304.684 260.023C299.429 261.609 266.348 271.094 231.504 270.678C230.848 270.678 230.351 271.238 230.463 271.863Z" fill="#407BFF"/>
<path opacity="0.3" d="M230.463 271.863C231.328 276.894 232.369 280.82 232.706 282.037C232.77 282.294 232.946 282.502 233.187 282.63C234.901 283.591 242.718 287.373 257.056 286.604C273.156 285.722 296.578 277.022 308.785 267.665C309.153 267.393 309.282 266.896 309.105 266.464C308.08 264.06 306.542 261.577 305.821 260.439C305.581 260.055 305.116 259.895 304.684 260.023C299.429 261.609 266.348 271.094 231.504 270.678C230.848 270.678 230.351 271.238 230.463 271.863Z" fill="white"/>
<path d="M551.521 531.069H340.602C323.973 531.069 311.157 517.466 312.134 500.819L337.847 62.3581C338.824 45.7271 353.226 32.1083 369.854 32.1083H580.774C597.403 32.1083 610.219 45.7111 609.241 62.3581L583.529 500.819C582.552 517.45 568.15 531.069 551.521 531.069Z" fill="#407BFF"/>
<path opacity="0.8" d="M551.521 531.069H340.602C323.973 531.069 311.157 517.466 312.134 500.819L337.847 62.3581C338.824 45.7271 353.226 32.1083 369.854 32.1083H580.774C597.403 32.1083 610.219 45.7111 609.241 62.3581L583.529 500.819C582.552 517.45 568.15 531.069 551.521 531.069Z" fill="white"/>
<path d="M550.272 522.289H345.232C333.537 522.289 324.534 512.724 325.223 501.028L350.823 64.489C351.511 52.7929 361.636 43.2277 373.315 43.2277H578.355C590.049 43.2277 599.052 52.7929 598.364 64.489L572.764 501.028C572.075 512.724 561.95 522.289 550.272 522.289Z" fill="#407BFF"/>
<path d="M548.061 519.95H343.021C331.326 519.95 322.323 510.384 323.012 498.688L348.612 62.1498C349.3 50.4536 359.425 40.8884 371.104 40.8884H576.144C587.838 40.8884 596.841 50.4536 596.153 62.1498L570.553 498.688C569.864 510.384 559.739 519.95 548.061 519.95Z" fill="white"/>
<path opacity="0.1" d="M542.068 503.719H350.901C343.676 503.719 338.117 497.807 338.534 490.581L349.219 308.49C349.636 301.264 355.899 295.352 363.124 295.352H554.291C561.516 295.352 567.075 301.264 566.658 308.49L555.973 490.581C555.557 497.807 549.293 503.719 542.068 503.719Z" fill="#407BFF"/>
<path opacity="0.1" d="M499.599 73.2691H443.882C441.302 73.2691 439.3 71.1542 439.46 68.5586C439.604 65.963 441.847 63.8481 444.442 63.8481H500.16C502.739 63.8481 504.742 65.963 504.581 68.5586C504.421 71.1542 502.178 73.2691 499.599 73.2691Z" fill="#407BFF"/>
<path opacity="0.1" d="M521.789 248.998C556.108 215.664 558.45 162.401 527.019 130.032C495.589 97.6632 442.287 98.4453 407.967 131.779C373.648 165.113 371.306 218.376 402.737 250.745C434.168 283.114 487.469 282.332 521.789 248.998Z" fill="#407BFF"/>
<path d="M405.947 246.132C391.817 231.151 384.72 211.236 385.954 190.07L387.556 190.166C386.338 210.883 393.291 230.366 407.116 245.026L405.947 246.132Z" fill="#407BFF"/>
<path d="M543.75 190.727L542.148 190.631C542.565 183.469 542.02 176.387 540.498 169.578L542.068 169.226C543.622 176.195 544.183 183.421 543.75 190.727Z" fill="#407BFF"/>
<path d="M535.902 155.655C532.618 148.349 528.148 141.652 522.605 135.771C514.932 127.632 505.736 121.544 495.291 117.682L495.852 116.176C506.537 120.118 515.925 126.35 523.775 134.666C529.446 140.674 534.011 147.516 537.376 154.998L535.902 155.655Z" fill="#407BFF"/>
<path d="M514.466 241.456C544.375 212.406 546.419 165.993 519.031 137.788C491.644 109.584 445.197 110.268 415.289 139.318C385.38 168.367 383.336 214.78 410.724 242.985C438.111 271.189 484.558 270.505 514.466 241.456Z" fill="#134995"/>
<path d="M456.715 200.341C456.731 200.341 456.747 200.325 456.763 200.325C460.287 199.555 461.937 196.527 462.674 193.099C462.754 192.746 462.818 192.394 462.883 192.025C462.899 191.913 462.915 191.817 462.931 191.705C463.139 190.263 463.235 188.773 463.251 187.395C456.571 186.658 450.964 181.466 450.659 173.712C450.419 167.848 451.765 160.221 454.937 154.117C454.296 154.197 453.543 154.453 452.774 155.014C452.646 155.11 452.486 155.142 452.341 155.11C452.213 155.078 452.085 155.014 451.989 154.886C451.813 154.645 451.861 154.293 452.101 154.117C453.367 153.171 454.632 152.963 455.561 152.963C455.786 152.579 456.01 152.178 456.25 151.81C455.241 151.826 454.248 151.842 453.287 151.81C454.344 144.407 468.586 138.191 478.294 143.863C482.619 144.728 489.748 150.896 489.748 150.896C489.748 150.896 490.02 156.248 489.412 162.721C488.771 169.402 487.185 177.285 483.34 181.659C484.349 179.384 484.606 176.996 484.365 174.545C483.34 175.538 482.171 176.147 481.033 176.436C480.569 177.445 480.056 178.374 479.463 179.255C477.957 186.129 476.884 195.294 479.175 200.549C481.241 200.677 483.244 200.869 485.15 201.078C485.311 201.094 485.455 201.126 485.615 201.158C486.864 200.421 488.082 199.604 489.235 198.69C503.637 187.459 488.338 174.321 491.959 162.256C495.563 150.191 492.52 145.609 482.667 145.208C486.768 138.703 460.8 128.273 449.394 148.525C439.061 166.87 435.729 176.019 439.445 190.375C440.615 194.909 443.851 198.69 448.272 201.414C448.993 201.222 449.73 201.062 450.483 200.965C452.518 200.741 454.632 200.517 456.715 200.341Z" fill="#263238"/>
<path d="M434.303 228.555C433.598 227.354 433.038 226.264 432.637 225.367C431.548 228.604 430.474 231.84 429.417 235.028C428.44 237.912 427.479 240.796 426.485 243.552L424.996 247.446L424.339 248.984C424.114 249.416 424.339 249.176 424.307 249.288C424.018 249.721 423.025 250.634 422.048 251.483C421.856 251.643 421.647 251.804 421.455 251.98C425.845 254.928 430.587 257.411 435.665 259.302C435.777 251.98 436.674 244.369 437.635 242.334C431.996 238.297 432.861 233.939 434.303 228.555Z" fill="#FFC3BD"/>
<path d="M439.909 206.942C439.765 207.118 439.636 207.31 439.492 207.502C439.636 207.31 439.781 207.134 439.909 206.942Z" fill="#263238"/>
<path d="M436.208 217.676C436.208 214.023 437.329 210.611 439.268 207.807C435.199 213.463 431.738 223.172 431.738 223.172C431.738 223.172 432.027 224.037 432.635 225.351C433.036 226.232 433.597 227.338 434.301 228.539C435.151 225.335 436.208 221.762 436.208 217.676Z" fill="#263238"/>
<path d="M492.055 240.925C490.357 238.489 488.595 235.413 487.009 232.16C486.528 232.417 486.031 232.673 485.519 232.897C480.713 227.818 476.612 223.717 476.612 223.717C470.62 211.22 474.321 204.09 485.679 201.206C487.409 201.526 489.075 202.247 490.645 203.208C489.187 202.183 487.489 201.478 485.615 201.19C485.455 201.158 485.311 201.126 485.15 201.11C483.244 200.885 481.241 200.709 479.175 200.581C479.607 201.75 469.323 216.523 462.883 218.958C460.239 212.293 452.822 211.844 452.822 211.844C452.822 211.844 445.901 210.418 443.755 214.776C445.164 205.772 453.831 201.029 456.715 200.341C454.648 200.517 452.534 200.741 450.499 200.997C449.73 201.094 449.009 201.254 448.288 201.446C444.908 202.359 442.041 204.33 439.942 206.958C439.798 207.134 439.654 207.31 439.525 207.502C439.445 207.599 439.365 207.711 439.301 207.807C437.347 210.611 436.225 214.023 436.241 217.676C436.257 221.762 435.184 225.335 434.335 228.555C432.893 233.939 432.028 238.313 437.683 242.318C436.738 244.353 435.825 251.964 435.713 259.286C443.386 262.154 451.765 263.708 460.592 263.708C471.71 263.708 482.379 261.225 492.087 256.786C491.863 251.659 491.799 245.683 492.231 238.89C492.151 239.563 492.087 240.268 492.055 240.925Z" fill="#263238"/>
<path d="M452.822 211.844C452.822 211.844 460.24 212.309 462.883 218.958C469.323 216.523 479.608 201.75 479.175 200.581C479.175 200.581 464.597 207.663 452.822 211.844Z" fill="white"/>
<path d="M456.747 200.324C456.73 200.324 456.714 200.34 456.698 200.34C453.831 201.029 445.164 205.772 443.738 214.776C445.885 210.418 452.806 211.844 452.806 211.844C450.611 203.417 456.747 200.324 456.747 200.324Z" fill="white"/>
<path d="M462.883 192.025C462.899 191.913 462.915 191.817 462.931 191.705C462.915 191.817 462.899 191.929 462.883 192.025Z" fill="#FFC3BD"/>
<path d="M479.463 179.287C478.197 181.162 476.579 182.796 474.272 184.415C473.391 185.039 472.478 185.536 471.549 185.969C469.482 189.558 465.782 192.121 462.61 193.387C462.626 193.291 462.642 193.195 462.658 193.115C461.905 196.543 460.255 199.571 456.747 200.341C456.747 200.341 450.595 203.433 452.822 211.844C464.596 207.679 479.175 200.581 479.175 200.581C476.884 195.326 477.957 186.145 479.463 179.287Z" fill="#FFC3BD"/>
<path d="M471.548 185.969C468.793 187.266 465.941 187.699 463.25 187.411C463.234 188.789 463.138 190.279 462.929 191.721C462.913 191.833 462.897 191.929 462.881 192.041C462.817 192.394 462.753 192.762 462.673 193.115C462.657 193.211 462.641 193.307 462.625 193.387C465.797 192.105 469.482 189.542 471.548 185.969Z" fill="#FFC3BD"/>
<path opacity="0.2" d="M471.548 185.969C468.793 187.266 465.941 187.699 463.25 187.411C463.234 188.789 463.138 190.279 462.929 191.721C462.913 191.833 462.897 191.929 462.881 192.041C462.817 192.394 462.753 192.762 462.673 193.115C462.657 193.211 462.641 193.307 462.625 193.387C465.797 192.105 469.482 189.542 471.548 185.969Z" fill="black"/>
<path d="M471.549 185.969C472.462 185.536 473.375 185.039 474.272 184.415C476.563 182.796 478.197 181.162 479.463 179.287C480.055 178.406 480.568 177.477 481.033 176.468C480.728 176.548 480.424 176.628 480.136 176.66C477.46 176.916 476.707 173.904 477.925 171.196C478.293 170.379 478.854 169.482 479.527 168.697C478.774 166.374 479.062 163.858 480.007 161.775C477.572 156.776 474.993 152.194 474.753 148.797C468.233 150.816 461.857 151.697 456.266 151.826C456.025 152.194 455.801 152.595 455.577 152.979C456.458 152.979 457.051 153.203 457.099 153.219C457.387 153.332 457.531 153.652 457.419 153.94C457.307 154.229 456.987 154.373 456.698 154.261C456.634 154.245 455.913 153.989 454.92 154.133C451.732 160.253 450.402 167.864 450.643 173.728C450.963 181.482 456.554 186.674 463.234 187.411C465.942 187.699 468.793 187.25 471.549 185.969ZM467.976 154.485C468.088 154.501 470.62 154.87 471.949 157.642C472.077 157.914 471.965 158.25 471.693 158.379C471.565 158.443 471.421 158.443 471.276 158.411C471.132 158.363 471.02 158.266 470.94 158.122C469.867 155.895 467.848 155.591 467.832 155.591C467.528 155.543 467.32 155.27 467.352 154.966C467.4 154.661 467.672 154.453 467.976 154.485ZM467.416 162.416C467.4 162.432 467.4 162.416 467.384 162.432C467.848 162.705 468.089 163.41 467.944 164.211C467.768 165.14 467.127 165.797 466.519 165.685C465.91 165.573 465.557 164.723 465.75 163.794C465.846 163.265 466.118 162.833 466.422 162.576C465.734 162.32 465.317 161.359 465.317 161.359L467.416 162.416ZM454.279 161.743C454.375 161.214 454.648 160.782 454.952 160.526C454.263 160.269 453.847 159.308 453.847 159.308L455.961 160.381C455.945 160.381 455.945 160.381 455.929 160.397C456.394 160.67 456.634 161.375 456.49 162.176C456.314 163.105 455.673 163.762 455.064 163.65C454.455 163.522 454.103 162.673 454.279 161.743ZM457.996 169.514C457.996 169.514 455.817 169.642 454.808 168.248C456.907 166.646 459.261 162.961 459.261 162.961L457.996 169.514ZM461.088 173.808C460.944 173.776 460.831 173.632 460.863 173.487C460.895 173.343 461.04 173.247 461.184 173.263C465.253 174.048 467.704 171.565 467.736 171.533C467.848 171.421 468.024 171.421 468.137 171.533C468.249 171.645 468.249 171.821 468.137 171.933C468.04 172.029 466.07 174.032 462.658 173.984C462.177 173.968 461.648 173.92 461.088 173.808Z" fill="#FFC3BD"/>
<path d="M482.233 166.678C481.56 165.012 480.791 163.377 480.023 161.775C479.077 163.858 478.789 166.374 479.542 168.697C480.311 167.768 481.256 166.998 482.233 166.678Z" fill="#263238"/>
<path d="M466.421 162.56C466.101 162.817 465.845 163.249 465.749 163.778C465.572 164.707 465.925 165.557 466.518 165.669C467.126 165.781 467.767 165.124 467.943 164.195C468.104 163.394 467.847 162.689 467.383 162.416C467.014 162.657 466.694 162.673 466.421 162.56Z" fill="#263238"/>
<path d="M456.491 162.176C456.651 161.375 456.395 160.67 455.93 160.397C455.561 160.638 455.241 160.638 454.953 160.542C454.632 160.798 454.376 161.231 454.28 161.759C454.104 162.689 454.456 163.538 455.049 163.65C455.674 163.762 456.298 163.105 456.491 162.176Z" fill="#263238"/>
<path d="M455.928 160.397C455.944 160.397 455.944 160.397 455.96 160.381L453.846 159.308C453.846 159.308 454.262 160.269 454.951 160.526C455.239 160.638 455.56 160.638 455.928 160.397Z" fill="#263238"/>
<path d="M454.809 168.264C455.818 169.642 457.997 169.53 457.997 169.53L459.246 162.977C459.262 162.961 456.907 166.662 454.809 168.264Z" fill="#ED847E"/>
<path d="M468.152 171.533C468.04 171.421 467.864 171.421 467.752 171.533C467.72 171.565 465.269 174.048 461.2 173.263C461.039 173.231 460.895 173.327 460.879 173.487C460.847 173.632 460.943 173.792 461.103 173.808C461.664 173.92 462.193 173.968 462.689 173.968C466.102 174.016 468.072 172.013 468.168 171.917C468.264 171.821 468.248 171.645 468.152 171.533Z" fill="#263238"/>
<path d="M482.234 166.678C481.257 166.998 480.312 167.768 479.527 168.681C478.854 169.466 478.293 170.363 477.925 171.18C476.707 173.888 477.46 176.9 480.136 176.644C480.424 176.612 480.729 176.532 481.033 176.452C482.17 176.163 483.34 175.554 484.365 174.561C484.109 171.949 483.292 169.29 482.234 166.678Z" fill="#FFC3BD"/>
<path d="M475.088 146.394C475.184 144.087 476.498 143.526 478.292 143.895C468.584 138.223 454.342 144.439 453.285 151.842C454.246 151.858 455.24 151.858 456.249 151.842C461.856 151.713 468.232 150.832 474.736 148.813C474.688 147.9 474.784 147.099 475.088 146.394Z" fill="#263238"/>
<path d="M475.09 146.394C474.785 147.099 474.689 147.916 474.753 148.797C474.994 152.194 477.573 156.76 480.008 161.775C480.793 163.378 481.562 165.028 482.219 166.678C483.276 169.29 484.093 171.965 484.349 174.577C484.589 177.028 484.333 179.416 483.324 181.691C487.185 177.317 488.771 169.434 489.395 162.753C490.004 156.296 489.732 150.928 489.732 150.928C489.732 150.928 482.587 144.76 478.278 143.895C476.499 143.526 475.186 144.071 475.09 146.394Z" fill="#263238"/>
<path d="M467.831 155.591C467.848 155.591 469.882 155.879 470.939 158.122C471.003 158.266 471.132 158.363 471.276 158.411C471.404 158.459 471.548 158.443 471.692 158.379C471.965 158.25 472.093 157.914 471.949 157.642C470.619 154.87 468.088 154.501 467.976 154.485C467.671 154.453 467.399 154.661 467.351 154.966C467.319 155.27 467.527 155.559 467.831 155.591Z" fill="#263238"/>
<path d="M456.715 154.261C457.003 154.373 457.324 154.229 457.436 153.94C457.548 153.652 457.404 153.332 457.115 153.219C457.067 153.203 456.475 152.995 455.593 152.979C454.664 152.979 453.415 153.187 452.133 154.133C451.893 154.309 451.829 154.661 452.021 154.902C452.117 155.014 452.229 155.094 452.373 155.126C452.518 155.158 452.678 155.126 452.806 155.03C453.575 154.453 454.328 154.213 454.969 154.133C455.93 153.989 456.651 154.229 456.715 154.261Z" fill="#263238"/>
<path d="M466.422 162.56C466.694 162.673 467.031 162.656 467.399 162.416C467.415 162.416 467.415 162.416 467.431 162.4L465.316 161.327C465.316 161.343 465.717 162.304 466.422 162.56Z" fill="#263238"/>
<path d="M492.054 240.925C492.086 240.268 492.15 239.579 492.182 238.906C491.285 237.48 490.356 236.038 489.427 234.596C488.818 233.683 488.193 232.769 487.585 231.856C487.392 231.968 487.2 232.048 487.008 232.16C488.594 235.397 490.356 238.489 492.054 240.925Z" fill="#263238"/>
<path opacity="0.2" d="M492.054 240.925C492.086 240.268 492.15 239.579 492.182 238.906C491.285 237.48 490.356 236.038 489.427 234.596C488.818 233.683 488.193 232.769 487.585 231.856C487.392 231.968 487.2 232.048 487.008 232.16C488.594 235.397 490.356 238.489 492.054 240.925Z" fill="black"/>
<path d="M496.812 254.191L496.764 254.447C503.156 250.986 509.051 246.676 514.258 241.63C513.345 238.922 512.303 236.454 511.182 234.051C509.596 230.606 507.85 227.402 505.991 224.262C504.405 221.506 502.691 218.878 500.945 216.283C499.311 219.631 494.793 227.69 487.568 231.84C488.193 232.753 488.802 233.667 489.411 234.58C490.356 236.022 491.285 237.448 492.166 238.89C492.951 240.155 493.72 241.405 494.441 242.655C495.658 244.818 496.828 246.997 497.709 248.984L497.549 250.073C497.341 251.419 497.1 252.797 496.812 254.191Z" fill="#FFC3BD"/>
<path d="M476.61 223.717C476.61 223.717 480.711 227.818 485.517 232.897C486.03 232.673 486.51 232.417 487.007 232.16C487.199 232.064 487.392 231.968 487.584 231.856C494.809 227.706 499.326 219.647 500.96 216.299C501.425 215.353 501.665 214.776 501.665 214.776C501.665 214.776 497.036 207.086 490.66 203.208C489.09 202.263 487.424 201.526 485.693 201.206C474.319 204.09 470.619 211.22 476.61 223.717Z" fill="#263238"/>
<path d="M553.427 62.999H575.999C577.264 62.999 578.354 61.9735 578.418 60.7078C578.498 59.442 577.521 58.4166 576.271 58.4166H553.699C552.433 58.4166 551.344 59.442 551.28 60.7078C551.184 61.9735 552.161 62.999 553.427 62.999Z" fill="#407BFF"/>
<path d="M552.963 70.8498H575.535C576.8 70.8498 577.89 69.8244 577.954 68.5586C578.034 67.2929 577.057 66.2675 575.791 66.2675H553.219C551.953 66.2675 550.864 67.2929 550.8 68.5586C550.736 69.8244 551.697 70.8498 552.963 70.8498Z" fill="#407BFF"/>
<path d="M370.351 70.8498H392.923C394.189 70.8498 395.278 69.8244 395.342 68.5586C395.423 67.2929 394.445 66.2675 393.18 66.2675H370.608C369.342 66.2675 368.253 67.2929 368.189 68.5586C368.124 69.8244 369.102 70.8498 370.351 70.8498Z" fill="#407BFF"/>
<path d="M552.498 78.7167H575.07C576.336 78.7167 577.425 77.6912 577.489 76.4255C577.569 75.1598 576.592 74.1343 575.326 74.1343H552.754C551.489 74.1343 550.399 75.1598 550.335 76.4255C550.271 77.6912 551.232 78.7167 552.498 78.7167Z" fill="#407BFF"/>
<path d="M522.829 366.169H386.275C375.397 366.169 367.019 357.277 367.659 346.398C368.3 335.519 377.72 326.627 388.598 326.627H525.152C536.03 326.627 544.408 335.519 543.767 346.398C543.126 357.277 533.707 366.169 522.829 366.169Z" fill="white"/>
<path d="M519.722 419.315H383.167C372.29 419.315 363.911 410.423 364.552 399.544C365.193 388.664 374.613 379.772 385.49 379.772H522.045C532.922 379.772 541.301 388.664 540.66 399.544C540.019 410.406 530.599 419.315 519.722 419.315Z" fill="white"/>
<path d="M516.597 472.444H380.042C369.165 472.444 360.786 463.552 361.427 452.673C362.068 441.794 371.488 432.901 382.365 432.901H518.92C529.797 432.901 538.176 441.794 537.535 452.673C536.894 463.536 527.474 472.444 516.597 472.444Z" fill="white"/>
<path d="M396.894 353.478C401.052 349.44 401.339 342.991 397.536 339.074C393.732 335.157 387.279 335.256 383.122 339.294C378.964 343.332 378.677 349.78 382.48 353.697C386.283 357.614 392.737 357.516 396.894 353.478Z" fill="#407BFF"/>
<path d="M388.789 389.882L390.135 394.961C390.295 395.538 390.808 395.939 391.416 395.939H396.751C398.113 395.939 398.577 397.685 397.424 398.486L392.922 401.626C392.41 401.979 392.169 402.62 392.314 403.213L393.659 408.292C394.012 409.589 392.458 410.679 391.4 409.878L387.267 406.737C386.787 406.385 386.13 406.385 385.601 406.737L381.1 409.878C379.946 410.679 378.52 409.605 379.017 408.292L380.971 403.213C381.196 402.636 381.019 401.995 380.555 401.626L376.422 398.486C375.364 397.685 376.037 395.939 377.399 395.939H382.734C383.342 395.939 383.903 395.538 384.127 394.961L386.082 389.882C386.594 388.584 388.437 388.584 388.789 389.882Z" fill="#407BFF"/>
<path d="M392.538 447.289L391.705 461.549C391.641 462.767 390.584 463.776 389.35 463.776H376.871C375.653 463.776 374.708 462.783 374.788 461.549L375.829 443.797C375.893 442.563 376.951 441.569 378.184 441.569H387.155L392.538 447.289Z" fill="#407BFF"/>
<path d="M387.139 441.569L392.522 447.289H389.013C387.78 447.289 386.851 446.296 386.931 445.062L387.139 441.569ZM385.713 437.644L385.489 441.473L385.281 444.982C385.217 446.04 385.585 447.033 386.29 447.786C386.995 448.539 387.972 448.956 389.029 448.956H392.538H396.366L393.739 446.168L388.356 440.448L385.713 437.644Z" fill="white"/>
<path opacity="0.2" d="M518.247 344.299H416.071C414.293 344.299 412.931 342.857 413.044 341.079C413.14 339.3 414.678 337.858 416.456 337.858H518.631C520.41 337.858 521.771 339.3 521.659 341.079C521.547 342.857 520.009 344.299 518.247 344.299Z" fill="#407BFF"/>
<path opacity="0.2" d="M498.879 354.922H415.446C413.668 354.922 412.306 353.48 412.419 351.701C412.515 349.923 414.053 348.481 415.831 348.481H499.263C501.041 348.481 502.403 349.923 502.291 351.701C502.179 353.48 500.641 354.922 498.879 354.922Z" fill="#407BFF"/>
<path opacity="0.2" d="M514.884 401.626H486.688C484.91 401.626 483.388 403.068 483.276 404.847C483.18 406.625 484.542 408.067 486.304 408.067H514.499C516.277 408.067 517.799 406.625 517.912 404.847C518.008 403.068 516.646 401.626 514.884 401.626Z" fill="#407BFF"/>
<path opacity="0.2" d="M470.202 401.626H412.69C410.912 401.626 409.39 403.068 409.278 404.847C409.182 406.625 410.544 408.067 412.306 408.067H469.818C471.596 408.067 473.118 406.625 473.23 404.847C473.342 403.068 471.981 401.626 470.202 401.626Z" fill="#407BFF"/>
<path opacity="0.2" d="M496.763 390.988H413.331C411.553 390.988 410.031 392.43 409.919 394.208C409.823 395.987 411.184 397.429 412.947 397.429H496.379C498.157 397.429 499.679 395.987 499.791 394.208C499.887 392.446 498.525 390.988 496.763 390.988Z" fill="#407BFF"/>
<path opacity="0.2" d="M511.759 454.756H409.583C407.805 454.756 406.283 456.198 406.171 457.976C406.075 459.755 407.436 461.197 409.199 461.197H511.374C513.152 461.197 514.674 459.755 514.786 457.976C514.899 456.214 513.537 454.756 511.759 454.756Z" fill="#407BFF"/>
<path opacity="0.2" d="M493.64 444.133H410.208C408.43 444.133 406.908 445.575 406.796 447.353C406.7 449.132 408.061 450.574 409.824 450.574H493.256C495.034 450.574 496.556 449.132 496.668 447.353C496.78 445.575 495.418 444.133 493.64 444.133Z" fill="#407BFF"/>
</g>
<defs>
<clipPath id="clip0_42_206">
<rect width="801" height="597" fill="white"/>
</clipPath>
</defs>
</svg>
