<svg width="24" height="24" viewBox="0 0 24 24" fill="none" xmlns="http://www.w3.org/2000/svg">
<path d="M4.561 15.439C3.6364 14.5212 2.9225 13.6091 2.456 12.955C2.152 12.5287 2 12.3155 2 12C2 11.6845 2.152 11.4713 2.456 11.045C3.8221 9.12944 7.3108 5 12 5C12.9078 5 13.7706 5.15476 14.5817 5.41827M17.2526 6.74742C19.2688 8.1072 20.7579 9.94266 21.544 11.045C21.848 11.4713 22 11.6845 22 12C22 12.3155 21.848 12.5287 21.544 12.955C20.1779 14.8706 16.6892 19 12 19C10.0092 19 8.2349 18.2557 6.7474 17.2526" stroke="#7C7C7C" stroke-width="1.5" stroke-linecap="round" stroke-linejoin="round"/>
<path d="M14.1421 10C14.6722 10.53 15 11.2623 15 12.0711C15 13.6887 13.6887 15 12.0711 15C11.2623 15 10.53 14.6722 10 14.1421" stroke="#7C7C7C" stroke-width="1.5" stroke-linecap="round"/>
<path d="M21 3L3 21" stroke="#7C7C7C" stroke-width="1.5" stroke-linecap="round" stroke-linejoin="round"/>
</svg>
