<svg width="24" height="24" viewBox="0 0 24 24" fill="none" xmlns="http://www.w3.org/2000/svg">
<path fill-rule="evenodd" clip-rule="evenodd" d="M12 8.25C12.9946 8.25 13.9484 8.64509 14.6517 9.34835C15.3549 10.0516 15.75 11.0054 15.75 12C15.75 12.9946 15.3549 13.9484 14.6517 14.6517C13.9484 15.3549 12.9946 15.75 12 15.75C11.0054 15.75 10.0516 15.3549 9.34835 14.6517C8.64509 13.9484 8.25 12.9946 8.25 12C8.25 11.0054 8.64509 10.0516 9.34835 9.34835C10.0516 8.64509 11.0054 8.25 12 8.25ZM14.25 12C14.25 11.4033 14.0129 10.831 13.591 10.409C13.169 9.98705 12.5967 9.75 12 9.75C11.4033 9.75 10.831 9.98705 10.409 10.409C9.98705 10.831 9.75 11.4033 9.75 12C9.75 12.5967 9.98705 13.169 10.409 13.591C10.831 14.0129 11.4033 14.25 12 14.25C12.5967 14.25 13.169 14.0129 13.591 13.591C14.0129 13.169 14.25 12.5967 14.25 12Z" fill="#7C7C7C"/>
<path fill-rule="evenodd" clip-rule="evenodd" d="M12 3.25C16.514 3.25 19.555 5.954 21.32 8.247L21.351 8.288C21.751 8.807 22.118 9.284 22.367 9.848C22.634 10.453 22.75 11.112 22.75 12C22.75 12.888 22.634 13.547 22.367 14.152C22.117 14.716 21.75 15.194 21.351 15.712L21.319 15.753C19.555 18.046 16.514 20.75 12 20.75C7.486 20.75 4.445 18.046 2.68 15.753L2.649 15.712C2.249 15.194 1.882 14.716 1.633 14.152C1.366 13.547 1.25 12.888 1.25 12C1.25 11.112 1.366 10.453 1.633 9.848C1.883 9.284 2.25 8.807 2.649 8.288L2.681 8.247C4.445 5.954 7.486 3.25 12 3.25ZM20.13 9.162C18.502 7.045 15.85 4.75 12 4.75C8.15 4.75 5.499 7.045 3.87 9.162C3.43 9.732 3.174 10.072 3.005 10.454C2.847 10.812 2.75 11.249 2.75 12C2.75 12.751 2.847 13.188 3.005 13.546C3.174 13.928 3.431 14.268 3.869 14.838C5.5 16.955 8.15 19.25 12 19.25C15.85 19.25 18.501 16.955 20.13 14.838C20.57 14.268 20.826 13.928 20.995 13.546C21.153 13.188 21.25 12.751 21.25 12C21.25 11.249 21.153 10.812 20.995 10.454C20.826 10.072 20.568 9.732 20.13 9.162Z" fill="#7C7C7C"/>
</svg>
