<svg width="49" height="49" viewBox="0 0 49 49" fill="none" xmlns="http://www.w3.org/2000/svg">
<path d="M2.00977 19.9216C1.69299 19.9216 1.43555 19.6641 1.43555 19.3474C1.43555 19.0306 1.69299 18.7731 2.00977 18.7731H10.6833C11.0001 18.7731 11.2576 19.0306 11.2576 19.3474C11.2576 19.6641 11.0001 19.9216 10.6833 19.9216H2.00977ZM8.86307 27.4324C8.86307 27.1156 8.60563 26.8581 8.28885 26.8581H2.20309C1.88631 26.8581 1.62887 27.1156 1.62887 27.4324C1.62887 27.7491 1.88631 28.0066 2.20309 28.0066H8.28885C8.60658 28.0066 8.86307 27.7501 8.86307 27.4324ZM11.115 36.6304C11.115 36.3136 10.8575 36.0562 10.5407 36.0562H5.83406C5.51728 36.0562 5.25984 36.3136 5.25984 36.6304C5.25984 36.9472 5.51728 37.2046 5.83406 37.2046H10.5407C10.8575 37.2046 11.115 36.9472 11.115 36.6304ZM47.5645 28.3856C47.5645 38.1128 39.6508 46.0256 29.9245 46.0256C25.5518 46.0256 21.5466 44.4254 18.4611 41.7821C18.4104 41.7964 18.3578 41.805 18.3032 41.805H11.382C11.0652 41.805 10.8078 41.5476 10.8078 41.2308C10.8078 40.9141 11.0652 40.6566 11.382 40.6566H17.2648C15.1221 38.4468 13.5525 35.68 12.7936 32.5975H5.61682C5.30004 32.5975 5.0426 32.34 5.0426 32.0232C5.0426 31.7065 5.30004 31.449 5.61682 31.449H12.5505C12.3754 30.4537 12.2835 29.4306 12.2835 28.3856C12.2835 26.6677 12.5314 25.0063 12.9917 23.4348H8.87264C8.55586 23.4348 8.29842 23.1774 8.29842 22.8606C8.29842 22.5438 8.55586 22.2864 8.87264 22.2864H13.3707C13.9275 20.7816 14.6874 19.3601 15.6293 18.0611L14.1066 16.5385L13.8348 16.8103C13.5142 17.1318 13.0855 17.3079 12.629 17.3079C12.1725 17.3079 11.7447 17.1309 11.4231 16.8103L9.69664 15.0838C9.0315 14.4186 9.0315 13.3372 9.69664 12.673L14.1899 8.17976C14.5115 7.8582 14.9393 7.6821 15.3958 7.6821C15.8523 7.6821 16.2801 7.85916 16.6016 8.17976L18.3271 9.90529C18.6487 10.2269 18.8248 10.6546 18.8248 11.1111C18.8248 11.5677 18.6478 11.9954 18.3271 12.317L18.0764 12.5677L19.599 14.0904C21.783 12.5084 24.3421 11.4145 27.1156 10.9685V8.8248H26.7308C25.791 8.8248 25.0254 8.06013 25.0254 7.11937V4.67894C25.0254 3.73914 25.7901 2.97351 26.7308 2.97351H33.0855C34.0253 2.97351 34.791 3.73818 34.791 4.67894V7.12033C34.791 8.06013 34.0263 8.82576 33.0855 8.82576H32.7305V10.9705C41.1284 12.3189 47.5645 19.6144 47.5645 28.3856ZM33.0865 7.67636C33.3937 7.67636 33.6435 7.42658 33.6435 7.11937V4.67894C33.6435 4.37173 33.3937 4.12195 33.0865 4.12195H26.7318C26.4246 4.12195 26.1748 4.37173 26.1748 4.67894V7.12033C26.1748 7.42753 26.4246 7.67732 26.7318 7.67732H33.0865V7.67636ZM28.265 8.8248V10.824C28.8114 10.7724 29.3646 10.7456 29.9235 10.7456C30.4824 10.7456 31.0365 10.7733 31.582 10.824V8.8248H28.265ZM17.5165 11.5054C17.6209 11.4011 17.6783 11.2614 17.6783 11.1121C17.6783 10.9628 17.6209 10.8231 17.5165 10.7188L15.791 8.99228C15.6867 8.88796 15.547 8.83054 15.3977 8.83054C15.2484 8.83054 15.1087 8.88796 15.0043 8.99228L10.5111 13.4855C10.4067 13.59 10.3481 13.7317 10.3481 13.8794C10.3481 14.027 10.4067 14.1687 10.5111 14.2732L12.2366 15.9987C12.3409 16.103 12.4806 16.1604 12.6299 16.1604C12.7792 16.1604 12.919 16.103 13.0233 15.9987L17.5165 11.5054ZM16.3384 17.1462C17.0457 16.2925 17.8314 15.5068 18.6851 14.7995L17.2658 13.3803L14.9192 15.7269L16.3384 17.1462ZM46.416 28.3856C46.416 19.2918 39.0182 11.894 29.9245 11.894C20.8307 11.894 13.4319 19.2918 13.4319 28.3856C13.4319 37.4793 20.8298 44.8771 29.9245 44.8771C39.0182 44.8781 46.416 37.4793 46.416 28.3856ZM43.5488 28.3856C43.5488 35.8983 37.4371 42.0099 29.9245 42.0099C22.4118 42.0099 16.2992 35.8983 16.2992 28.3856C16.2992 20.8729 22.4108 14.7613 29.9235 14.7613C37.4362 14.7613 43.5488 20.8729 43.5488 28.3856ZM42.386 28.9598H39.9867C39.6699 28.9598 39.4125 28.7023 39.4125 28.3856C39.4125 28.0688 39.6699 27.8113 39.9867 27.8113H42.386C42.2491 24.8034 41.0423 22.0701 39.1378 19.9838L37.4448 21.6768C37.3916 21.7301 37.3283 21.7724 37.2587 21.8013C37.189 21.8302 37.1144 21.8451 37.039 21.8451C36.9636 21.8451 36.889 21.8302 36.8194 21.8013C36.7497 21.7724 36.6865 21.7301 36.6332 21.6768C36.4093 21.4528 36.4093 21.0892 36.6332 20.8643L38.3262 19.1713C36.2399 17.2668 33.5057 16.06 30.4987 15.9231V18.3224C30.4987 18.6392 30.2412 18.8966 29.9245 18.8966C29.6077 18.8966 29.3502 18.6392 29.3502 18.3224V15.9231C26.3423 16.06 23.609 17.2668 21.5227 19.1713L23.2157 20.8643C23.4396 21.0882 23.4396 21.4519 23.2157 21.6768C23.1624 21.7301 23.0992 21.7724 23.0295 21.8013C22.9599 21.8302 22.8853 21.8451 22.8099 21.8451C22.7345 21.8451 22.6599 21.8302 22.5902 21.8013C22.5206 21.7724 22.4574 21.7301 22.4041 21.6768L20.7111 19.9838C18.8066 22.0701 17.5998 24.8043 17.4629 27.8113H19.8622C20.179 27.8113 20.4364 28.0688 20.4364 28.3856C20.4364 28.7023 20.179 28.9598 19.8622 28.9598H17.4629C17.5998 31.9677 18.8066 34.701 20.7111 36.7873L22.4041 35.0943C22.628 34.8704 22.9917 34.8704 23.2157 35.0943C23.4396 35.3183 23.4396 35.682 23.2157 35.9069L21.5227 37.5999C23.609 39.5043 26.3432 40.7112 29.3502 40.848V38.4487C29.3502 38.132 29.6077 37.8745 29.9245 37.8745C30.2412 37.8745 30.4987 38.132 30.4987 38.4487V40.848C33.5066 40.7112 36.2399 39.5043 38.3262 37.5999L36.6332 35.9078C36.4093 35.6839 36.4093 35.3202 36.6332 35.0953C36.7409 34.9878 36.8869 34.9274 37.039 34.9274C37.1912 34.9274 37.3371 34.9878 37.4448 35.0953L39.1378 36.7883C41.0423 34.701 42.2491 31.9677 42.386 28.9598ZM34.2072 26.0475C34.301 26.2514 34.2675 26.4906 34.122 26.661L26.6734 35.3776C26.5849 35.4814 26.4622 35.5502 26.3275 35.5716C26.1927 35.593 26.0548 35.5656 25.9384 35.4944C25.8221 35.4232 25.7348 35.313 25.6922 35.1835C25.6496 35.0539 25.6545 34.9135 25.7059 34.7871L27.9798 29.2316H26.1624C25.9633 29.2316 25.7786 29.1282 25.6743 28.9598C25.623 28.8766 25.5938 28.7817 25.5892 28.6841C25.5847 28.5865 25.6051 28.4894 25.6484 28.4018L29.0832 21.5131C29.1309 21.4176 29.2043 21.3373 29.295 21.2812C29.3858 21.2251 29.4904 21.1954 29.5971 21.1954H29.6029L33.3841 21.2346C33.4863 21.2357 33.5863 21.264 33.6739 21.3167C33.7615 21.3693 33.8335 21.4443 33.8825 21.534C33.9314 21.6237 33.9555 21.7248 33.9524 21.827C33.9492 21.9291 33.9189 22.0286 33.8646 22.1151L31.5973 25.7154H33.6865C33.7961 25.7146 33.9036 25.7456 33.996 25.8045C34.0883 25.8634 34.1617 25.9478 34.2072 26.0475ZM32.4395 26.862H30.5561C30.4534 26.8619 30.3527 26.8343 30.2643 26.782C30.176 26.7298 30.1032 26.6548 30.0537 26.5649C30.0042 26.475 29.9796 26.3735 29.9826 26.2708C29.9857 26.1682 30.0161 26.0683 30.0709 25.9815L32.3457 22.3706L29.9513 22.3457L27.0907 28.0822H28.8354C29.0268 28.0822 29.2057 28.1779 29.312 28.3368C29.4182 28.4956 29.4392 28.6975 29.3665 28.8746L28.1224 31.9151L32.4395 26.862Z" fill="#134995"/>
</svg>
