<svg width="462" height="467" viewBox="0 0 462 467" fill="none" xmlns="http://www.w3.org/2000/svg">
<g clip-path="url(#clip0_34_677)">
<path d="M114.54 315.353L93.9092 292.233C110.087 287.391 126.783 284.479 143.649 283.557C147.832 325.118 163.358 364.81 185.457 383.846C204.92 400.455 227.413 398.529 246.832 377.681C261.848 361.558 264.014 339.705 251.521 319.611C236.216 294.724 200.701 274.922 151.579 275.085C149.2 240.751 155.177 206.004 172.015 183.341C220.989 117.497 391.629 164.389 394.339 165.682L396.141 161.896L397.964 158.128C397.29 157.79 223.667 106.253 169.58 172.742C143.684 204.594 140.667 239.134 142.949 275.217C125.206 276.213 107.648 279.327 90.6491 284.494L89.5677 253.078C80.2773 271.273 62.1147 292.268 46.122 306.584C67.4869 306.049 95.1762 308.683 114.54 315.353ZM152.195 283.351C197.718 283.312 230.26 301.361 244.304 323.962C249.068 331.327 251.255 340.061 250.522 348.796C249.79 357.53 246.179 365.772 240.257 372.229C223.601 389.474 206.711 391.003 190.83 377.401C170.574 360.084 156.223 322.564 152.195 283.351Z" fill="#134995"/>
</g>
<defs>
<clipPath id="clip0_34_677">
<rect width="357.33" height="299.479" fill="white" transform="translate(461.344 199.336) rotate(131.729)"/>
</clipPath>
</defs>
</svg>
