<svg width="36" height="36" viewBox="0 0 36 36" fill="none" xmlns="http://www.w3.org/2000/svg">
<path d="M7.62009 14.4308H28.3801C28.5673 14.4307 28.7527 14.4675 28.9256 14.539C29.0986 14.6106 29.2558 14.7156 29.3882 14.8479C29.5206 14.9802 29.6256 15.1374 29.6973 15.3103C29.769 15.4832 29.8058 15.6686 29.8058 15.8558V31.2C29.8058 31.578 29.6557 31.9404 29.3885 32.2077C29.1212 32.4749 28.7588 32.625 28.3808 32.625H7.62009C7.43289 32.6251 7.24751 32.5884 7.07453 32.5168C6.90156 32.4452 6.74438 32.3403 6.61197 32.2079C6.47957 32.0756 6.37454 31.9185 6.30288 31.7455C6.23122 31.5726 6.19434 31.3872 6.19434 31.2V15.8565C6.19434 15.4786 6.34447 15.1161 6.61171 14.8489C6.87895 14.5817 7.2414 14.4315 7.61934 14.4315" stroke="#134995" stroke-width="2" stroke-linecap="round" stroke-linejoin="round"/>
<path d="M10.1865 14.4308V11.1585C10.1993 6.84604 13.7055 3.36154 18.0173 3.37504C22.3103 3.38854 25.7873 6.86554 25.8008 11.1585V14.4308" stroke="#134995" stroke-width="2" stroke-linecap="round" stroke-linejoin="round"/>
<path d="M17.9936 23.5531C19.6657 23.5531 21.0213 22.1975 21.0213 20.5253C21.0213 18.8531 19.6657 17.4976 17.9936 17.4976C16.3214 17.4976 14.9658 18.8531 14.9658 20.5253C14.9658 22.1975 16.3214 23.5531 17.9936 23.5531Z" stroke="#134995" stroke-width="2" stroke-linecap="round" stroke-linejoin="round"/>
<path d="M18 23.9385V26.6947" stroke="#134995" stroke-width="2" stroke-linecap="round" stroke-linejoin="round"/>
</svg>
