<svg width="44" height="44" viewBox="0 0 44 44" fill="none" xmlns="http://www.w3.org/2000/svg">
<path fill-rule="evenodd" clip-rule="evenodd" d="M10.9994 19.8C12.1664 19.8 13.2855 19.3365 14.1107 18.5113C14.9358 17.6862 15.3994 16.567 15.3994 15.4C15.3994 14.2331 14.9358 13.1139 14.1107 12.2888C13.2855 11.4636 12.1664 11 10.9994 11C9.83246 11 8.7133 11.4636 7.88814 12.2888C7.06298 13.1139 6.59941 14.2331 6.59941 15.4C6.59941 16.567 7.06298 17.6862 7.88814 18.5113C8.7133 19.3365 9.83246 19.8 10.9994 19.8ZM10.9994 22C11.8661 22 12.7244 21.8293 13.5251 21.4977C14.3259 21.166 15.0535 20.6798 15.6663 20.067C16.2792 19.4541 16.7653 18.7265 17.097 17.9258C17.4287 17.125 17.5994 16.2668 17.5994 15.4C17.5994 14.5333 17.4287 13.6751 17.097 12.8743C16.7653 12.0736 16.2792 11.346 15.6663 10.7331C15.0535 10.1203 14.3259 9.63413 13.5251 9.30244C12.7244 8.97076 11.8661 8.80005 10.9994 8.80005C9.24899 8.80005 7.57025 9.4954 6.33251 10.7331C5.09477 11.9709 4.39941 13.6496 4.39941 15.4C4.39941 17.1505 5.09477 18.8292 6.33251 20.067C7.57025 21.3047 9.24899 22 10.9994 22Z" fill="#134995"/>
<path fill-rule="evenodd" clip-rule="evenodd" d="M8.47861 19.5713C8.58104 19.6735 8.66232 19.7949 8.71777 19.9285C8.77323 20.0621 8.80177 20.2054 8.80177 20.3501C8.80177 20.4948 8.77323 20.6381 8.71777 20.7717C8.66232 20.9053 8.58104 21.0267 8.47861 21.1289L7.73501 21.8703C6.30398 23.3017 5.49999 25.2428 5.4998 27.2669V31.3501C5.4998 31.6418 5.38391 31.9216 5.17762 32.1279C4.97133 32.3342 4.69154 32.4501 4.3998 32.4501C4.10807 32.4501 3.82828 32.3342 3.62199 32.1279C3.4157 31.9216 3.2998 31.6418 3.2998 31.3501V27.2669C3.30012 24.6594 4.33597 22.1588 6.17961 20.3149L6.92101 19.5713C7.02319 19.4689 7.14457 19.3876 7.27821 19.3321C7.41185 19.2767 7.55512 19.2481 7.69981 19.2481C7.84449 19.2481 7.98776 19.2767 8.1214 19.3321C8.25504 19.3876 8.37643 19.4689 8.47861 19.5713ZM34.421 18.9113C34.3186 19.0135 34.2373 19.1349 34.1818 19.2685C34.1264 19.4021 34.0978 19.5454 34.0978 19.6901C34.0978 19.8348 34.1264 19.9781 34.1818 20.1117C34.2373 20.2453 34.3186 20.3667 34.421 20.4689L35.1646 21.2103C36.5956 22.6417 37.3996 24.5828 37.3998 26.6069V31.3501C37.3998 31.6418 37.5157 31.9216 37.722 32.1279C37.9283 32.3342 38.2081 32.4501 38.4998 32.4501C38.7915 32.4501 39.0713 32.3342 39.2776 32.1279C39.4839 31.9216 39.5998 31.6418 39.5998 31.3501V26.6069C39.5995 23.9994 38.5636 21.4988 36.72 19.6549L35.9786 18.9113C35.8764 18.8089 35.755 18.7276 35.6214 18.6721C35.4878 18.6167 35.3445 18.5881 35.1998 18.5881C35.0551 18.5881 34.9119 18.6167 34.7782 18.6721C34.6446 18.7276 34.5232 18.8089 34.421 18.9113Z" fill="#134995"/>
<path fill-rule="evenodd" clip-rule="evenodd" d="M30.8002 19.8001C29.6332 19.8001 28.5141 19.3365 27.6889 18.5113C26.8638 17.6862 26.4002 16.567 26.4002 15.4C26.4002 14.2331 26.8638 13.1139 27.6889 12.2888C28.5141 11.4636 29.6332 11 30.8002 11C31.9671 11 33.0863 11.4636 33.9115 12.2888C34.7366 13.1139 35.2002 14.2331 35.2002 15.4C35.2002 16.567 34.7366 17.6862 33.9115 18.5113C33.0863 19.3365 31.9671 19.8001 30.8002 19.8001ZM30.8002 22.0001C29.9335 22.0001 29.0752 21.8293 28.2745 21.4977C27.4737 21.166 26.7462 20.6798 26.1333 20.067C25.5204 19.4541 25.0343 18.7265 24.7026 17.9258C24.3709 17.125 24.2002 16.2668 24.2002 15.4C24.2002 14.5333 24.3709 13.6751 24.7026 12.8743C25.0343 12.0736 25.5204 11.346 26.1333 10.7331C26.7462 10.1203 27.4737 9.63413 28.2745 9.30244C29.0752 8.97076 29.9335 8.80005 30.8002 8.80005C32.5506 8.80005 34.2294 9.4954 35.4671 10.7331C36.7048 11.9709 37.4002 13.6496 37.4002 15.4C37.4002 17.1505 36.7048 18.8292 35.4671 20.067C34.2294 21.3047 32.5506 22.0001 30.8002 22.0001ZM20.9002 29.1501C19.4415 29.1501 18.0426 29.7295 17.0111 30.761C15.9797 31.7924 15.4002 33.1914 15.4002 34.6501V37.5101C15.4002 37.8018 15.2843 38.0816 15.078 38.2879C14.8717 38.4942 14.5919 38.6101 14.3002 38.6101C14.0085 38.6101 13.7287 38.4942 13.5224 38.2879C13.3161 38.0816 13.2002 37.8018 13.2002 37.5101V34.6501C13.2002 32.6079 14.0114 30.6494 15.4555 29.2053C16.8995 27.7613 18.858 26.9501 20.9002 26.9501C22.9424 26.9501 24.9009 27.7613 26.3449 29.2053C27.7889 30.6494 28.6002 32.6079 28.6002 34.6501V37.5101C28.6002 37.8018 28.4843 38.0816 28.278 38.2879C28.0717 38.4942 27.7919 38.6101 27.5002 38.6101C27.2085 38.6101 26.9287 38.4942 26.7224 38.2879C26.5161 38.0816 26.4002 37.8018 26.4002 37.5101V34.6501C26.4002 33.9278 26.2579 33.2126 25.9815 32.5453C25.7051 31.878 25.3 31.2717 24.7893 30.761C24.2786 30.2502 23.6722 29.8451 23.005 29.5687C22.3377 29.2923 21.6225 29.1501 20.9002 29.1501Z" fill="#134995"/>
<path fill-rule="evenodd" clip-rule="evenodd" d="M20.8998 25.8501C22.0668 25.8501 23.1859 25.3865 24.0111 24.5614C24.8362 23.7362 25.2998 22.6171 25.2998 21.4501C25.2998 20.2831 24.8362 19.164 24.0111 18.3388C23.1859 17.5137 22.0668 17.0501 20.8998 17.0501C19.7329 17.0501 18.6137 17.5137 17.7885 18.3388C16.9634 19.164 16.4998 20.2831 16.4998 21.4501C16.4998 22.6171 16.9634 23.7362 17.7885 24.5614C18.6137 25.3865 19.7329 25.8501 20.8998 25.8501ZM20.8998 28.0501C22.6502 28.0501 24.329 27.3547 25.5667 26.117C26.8045 24.8793 27.4998 23.2005 27.4998 21.4501C27.4998 19.6997 26.8045 18.0209 25.5667 16.7832C24.329 15.5455 22.6502 14.8501 20.8998 14.8501C19.1494 14.8501 17.4706 15.5455 16.2329 16.7832C14.9952 18.0209 14.2998 19.6997 14.2998 21.4501C14.2998 23.2005 14.9952 24.8793 16.2329 26.117C17.4706 27.3547 19.1494 28.0501 20.8998 28.0501Z" fill="#134995"/>
</svg>
