<svg width="24" height="24" viewBox="0 0 24 24" fill="none" xmlns="http://www.w3.org/2000/svg">
<path d="M4 5.14289H20M9.71429 8.57146V17.7143M14.2857 8.57146V17.7143M6.28571 5.14289H17.7143V18.8572C17.7143 19.4634 17.4735 20.0448 17.0448 20.4734C16.6162 20.9021 16.0348 21.1429 15.4286 21.1429H8.57143C7.96522 21.1429 7.38384 20.9021 6.95518 20.4734C6.52653 20.0448 6.28571 19.4634 6.28571 18.8572V5.14289ZM12 2.85718C12.5767 2.857 13.1321 3.07479 13.5549 3.46689C13.9777 3.85899 14.2368 4.39643 14.28 4.97146L14.2857 5.14289H9.71429C9.71429 4.53668 9.9551 3.9553 10.3838 3.52665C10.8124 3.09799 11.3938 2.85718 12 2.85718Z" stroke="#134995" stroke-width="1.14286" stroke-linecap="round" stroke-linejoin="round"/>
</svg>
