<svg width="50" height="49" viewBox="0 0 50 49" fill="none" xmlns="http://www.w3.org/2000/svg">
<path d="M23.0229 30.3351L33.1455 20.2125L31.6878 18.7568L23.0229 27.4216L18.6578 23.0545L17.2001 24.5123L23.0229 30.3351ZM25.1667 42.7934C21.0656 41.5765 17.6581 39.0925 14.944 35.3413C12.23 31.59 10.8736 27.3638 10.875 22.6625V11.6212L25.1667 6.28223L39.4583 11.6212V22.6625C39.4583 27.3638 38.102 31.59 35.3893 35.3413C32.6766 39.0925 29.2691 41.5786 25.1667 42.7995M25.1667 40.6312C28.7056 39.5083 31.6319 37.2625 33.9458 33.8937C36.2597 30.525 37.4167 26.7819 37.4167 22.6646V13.0156L25.1667 8.46273L12.9167 13.0156V22.6625C12.9167 26.7799 14.0736 30.5229 16.3875 33.8917C18.7014 37.2604 21.6278 39.5083 25.1667 40.6312Z" fill="#134995"/>
</svg>
